<svg width="32" height="32" viewBox="0 0 32 32" fill="none" xmlns="http://www.w3.org/2000/svg">
<path d="M17.5513 5.61205C17.6541 5.22787 17.9053 4.90025 18.2497 4.70124C18.594 4.50223 19.0033 4.44812 19.3875 4.5508C21.3268 5.05601 23.0961 6.06938 24.5132 7.4864C25.9302 8.90343 26.9436 10.6728 27.4488 12.6121C27.5043 12.8038 27.5211 13.0046 27.498 13.2029C27.4749 13.4012 27.4125 13.5928 27.3145 13.7667C27.2164 13.9405 27.0846 14.093 26.9268 14.2153C26.769 14.3375 26.5884 14.4271 26.3956 14.4787C26.2028 14.5302 26.0016 14.5428 25.8039 14.5156C25.6061 14.4885 25.4158 14.4221 25.244 14.3204C25.0723 14.2188 24.9225 14.0839 24.8036 13.9236C24.6846 13.7633 24.5988 13.5809 24.5513 13.3871C24.1787 11.9586 23.4321 10.6552 22.3882 9.61137C21.3443 8.56749 20.041 7.82083 18.6125 7.4483C18.2283 7.34546 17.9007 7.09425 17.7017 6.7499C17.5027 6.40556 17.4486 5.99628 17.5513 5.61205ZM28.4813 22.9471C28.2429 24.7616 27.3522 26.4273 25.9754 27.6331C24.5987 28.8389 22.8301 29.5024 21 29.4996C10.7988 29.4996 2.50001 21.2008 2.50001 10.9996C2.49717 9.16943 3.16062 7.40085 4.36643 6.02412C5.57225 4.6474 7.23797 3.75667 9.05251 3.5183C9.58715 3.45334 10.1285 3.56233 10.5964 3.82912C11.0642 4.09592 11.4337 4.50633 11.65 4.99955L14.2888 10.8908C14.2916 10.8985 14.2949 10.906 14.2988 10.9133C14.4609 11.2923 14.5268 11.7056 14.4906 12.1162C14.4544 12.5269 14.3172 12.9222 14.0913 13.2671C14.0591 13.3173 14.0236 13.3653 13.985 13.4108L11.6025 16.2496C12.485 17.8546 14.165 19.5196 15.7888 20.4008L18.5775 18.0258C18.6223 17.9883 18.669 17.9533 18.7175 17.9208C19.0635 17.6886 19.4623 17.547 19.8773 17.509C20.2922 17.471 20.7101 17.5378 21.0925 17.7033L21.115 17.7133L27 20.3496C27.4931 20.5661 27.9034 20.9355 28.1702 21.4034C28.4369 21.8712 28.546 22.4124 28.4813 22.9471ZM25.4425 22.9396L20.1925 20.5883L17.3888 22.9721C17.3447 23.0102 17.2983 23.0457 17.25 23.0783C16.8896 23.3173 16.4734 23.4587 16.042 23.4887C15.6106 23.5187 15.1788 23.4363 14.7888 23.2496C12.3538 22.0746 9.92751 19.6646 8.75001 17.2496C8.56276 16.8613 8.47909 16.4312 8.50712 16.001C8.53516 15.5708 8.67395 15.1552 8.91001 14.7946C8.9426 14.7443 8.97851 14.6963 9.01751 14.6508L11.4125 11.8108L9.06001 6.5608C8.04927 6.78354 7.14509 7.34522 6.49754 8.15262C5.84999 8.96001 5.498 9.96456 5.50001 10.9996C5.50497 15.1089 7.1396 19.0485 10.0453 21.9542C12.9511 24.86 16.8907 26.4946 21 26.4996C22.0356 26.5024 23.0411 26.1508 23.8492 25.5032C24.6574 24.8556 25.2196 23.9509 25.4425 22.9396ZM17.2038 12.1833C17.8172 12.3767 18.3749 12.7151 18.8297 13.1699C19.2845 13.6246 19.6229 14.1824 19.8163 14.7958C19.912 15.1001 20.1022 15.366 20.3594 15.5549C20.6166 15.7437 20.9272 15.8456 21.2463 15.8458C21.3993 15.8456 21.5514 15.8224 21.6975 15.7771C22.0755 15.6575 22.3907 15.3931 22.5744 15.0418C22.758 14.6904 22.7951 14.2807 22.6775 13.9021C22.3392 12.828 21.7468 11.8515 20.9506 11.0552C20.1544 10.259 19.1778 9.66659 18.1038 9.3283C17.9147 9.26488 17.715 9.23977 17.5161 9.25445C17.3173 9.26913 17.1234 9.32331 16.9457 9.41381C16.7681 9.50431 16.6102 9.62932 16.4814 9.78153C16.3527 9.93374 16.2555 10.1101 16.1957 10.3003C16.1359 10.4905 16.1146 10.6907 16.133 10.8892C16.1515 11.0878 16.2093 11.2806 16.3032 11.4565C16.397 11.6324 16.525 11.7878 16.6797 11.9137C16.8343 12.0396 17.0125 12.1334 17.2038 12.1896V12.1833Z" fill="#64352A"/>
</svg>
