<svg width="32" height="32" viewBox="0 0 32 32" fill="none" xmlns="http://www.w3.org/2000/svg">
<path d="M29.5425 23.3869C30.2237 21.9054 30.5505 20.2857 30.497 18.6559C30.4434 17.0262 30.0111 15.4314 29.2342 13.9978C28.4573 12.5642 27.3572 11.3312 26.021 10.3966C24.6849 9.46194 23.1494 8.85135 21.5363 8.61318C20.3602 6.10331 18.2395 4.16026 15.6365 3.20778C13.0335 2.25531 10.1596 2.37068 7.64133 3.52874C5.1231 4.6868 3.16491 6.7936 2.19383 9.38967C1.22274 11.9857 1.31753 14.8605 2.45753 17.3869L1.60253 20.2944C1.47583 20.7253 1.46753 21.1823 1.57851 21.6175C1.68949 22.0527 1.91564 22.4499 2.23321 22.7675C2.55078 23.0851 2.94802 23.3112 3.3832 23.4222C3.81838 23.5332 4.27542 23.5249 4.70628 23.3982L7.61378 22.5432C8.51742 22.9574 9.47533 23.241 10.4588 23.3857C11.6229 25.9155 13.7437 27.8796 16.3552 28.8467C18.9667 29.8138 21.8552 29.7046 24.3863 28.5432L27.2938 29.3982C27.7246 29.5249 28.1817 29.5332 28.6169 29.4222C29.052 29.3112 29.4493 29.0851 29.7669 28.7675C30.0844 28.4499 30.3106 28.0527 30.4216 27.6175C30.5325 27.1823 30.5242 26.7253 30.3975 26.2944L29.5425 23.3869ZM7.75003 19.4382C7.60656 19.438 7.46383 19.4587 7.32628 19.4994L4.73628 20.2607L5.50003 17.6694C5.60955 17.2936 5.56783 16.8899 5.38378 16.5444C4.53334 14.9595 4.28082 13.1217 4.67226 11.3661C5.06371 9.61055 6.07304 8.05411 7.51625 6.9806C8.95945 5.90708 10.7404 5.38798 12.5344 5.51793C14.3284 5.64789 16.0159 6.41825 17.2893 7.68857C18.5627 8.95888 19.3372 10.6445 19.4716 12.4382C19.6059 14.2319 19.0911 16.0141 18.0211 17.4599C16.9511 18.9057 15.3972 19.9188 13.6426 20.3146C11.8879 20.7103 10.0495 20.4623 8.46253 19.6157C8.2434 19.4984 7.99857 19.4374 7.75003 19.4382ZM26.6113 22.5382C26.4272 22.8837 26.3855 23.2874 26.495 23.6632L27.2563 26.2544L24.67 25.5007C24.2919 25.3891 23.8851 25.4309 23.5375 25.6169C21.9249 26.4791 20.0529 26.7224 18.2735 26.3012C16.4941 25.8799 14.9299 24.8231 13.875 23.3294C16.4811 22.8587 18.8128 21.4197 20.4021 19.3013C21.9914 17.183 22.7207 14.5419 22.4438 11.9082C23.4699 12.2617 24.4071 12.8336 25.1906 13.5846C25.9741 14.3355 26.5853 15.2476 26.982 16.2578C27.3788 17.2679 27.5515 18.3522 27.4883 19.4356C27.4252 20.5191 27.1277 21.5759 26.6163 22.5332L26.6113 22.5382Z" fill="#64352A"/>
</svg>
