<svg width="32" height="32" viewBox="0 0 32 32" fill="none" xmlns="http://www.w3.org/2000/svg">
<path d="M16.0002 5.24918C13.6762 5.24918 11.4045 5.9383 9.4722 7.22941C7.53993 8.52052 6.0339 10.3556 5.14457 12.5026C4.25524 14.6497 4.02255 17.0122 4.47593 19.2915C4.9293 21.5708 6.04838 23.6644 7.69165 25.3077C9.33492 26.9509 11.4286 28.07 13.7078 28.5234C15.9871 28.9768 18.3497 28.7441 20.4967 27.8548C22.6437 26.9654 24.4788 25.4594 25.7699 23.5271C27.061 21.5949 27.7502 19.3231 27.7502 16.9992C27.7465 13.884 26.5074 10.8975 24.3046 8.69469C22.1019 6.49193 19.1153 5.25282 16.0002 5.24918ZM16.0002 27.2492C13.9729 27.2492 11.9912 26.648 10.3056 25.5217C8.61995 24.3955 7.30619 22.7946 6.53039 20.9217C5.75459 19.0487 5.55161 16.9878 5.9471 14.9995C6.3426 13.0112 7.31882 11.1848 8.75231 9.75133C10.1858 8.31784 12.0122 7.34163 14.0005 6.94613C15.9888 6.55063 18.0497 6.75361 19.9227 7.52941C21.7956 8.30521 23.3964 9.61898 24.5227 11.3046C25.649 12.9902 26.2502 14.9719 26.2502 16.9992C26.2468 19.7166 25.1659 22.3218 23.2443 24.2434C21.3228 26.1649 18.7176 27.2459 16.0002 27.2492ZM7.53015 4.52918L3.53015 8.52918C3.46149 8.60286 3.37869 8.66197 3.28669 8.70296C3.19469 8.74395 3.09538 8.76599 2.99468 8.76777C2.89397 8.76955 2.79394 8.75102 2.70056 8.7133C2.60717 8.67558 2.52233 8.61943 2.45112 8.54821C2.3799 8.477 2.32375 8.39216 2.28603 8.29877C2.24831 8.20539 2.22979 8.10536 2.23156 8.00465C2.23334 7.90395 2.25538 7.80464 2.29637 7.71264C2.33736 7.62064 2.39647 7.53784 2.47015 7.46918L6.47015 3.46918C6.53882 3.39549 6.62162 3.33639 6.71362 3.2954C6.80561 3.2544 6.90493 3.23236 7.00563 3.23059C7.10633 3.22881 7.20636 3.24733 7.29975 3.28505C7.39314 3.32278 7.47797 3.37892 7.54919 3.45014C7.62041 3.52136 7.67656 3.60619 7.71428 3.69958C7.752 3.79297 7.77052 3.893 7.76874 3.9937C7.76697 4.0944 7.74493 4.19372 7.70393 4.28572C7.66294 4.37771 7.60384 4.46052 7.53015 4.52918ZM29.5302 8.52918C29.3895 8.66963 29.1989 8.74852 29.0002 8.74852C28.8014 8.74852 28.6108 8.66963 28.4702 8.52918L24.4702 4.52918C24.3377 4.387 24.2656 4.19896 24.269 4.00465C24.2724 3.81035 24.3511 3.62497 24.4885 3.48756C24.6259 3.35014 24.8113 3.27143 25.0056 3.268C25.1999 3.26457 25.388 3.3367 25.5302 3.46918L29.5302 7.46918C29.6706 7.6098 29.7495 7.80043 29.7495 7.99918C29.7495 8.19793 29.6706 8.38855 29.5302 8.52918ZM23.0002 16.2492C23.1991 16.2492 23.3898 16.3282 23.5305 16.4688C23.6711 16.6095 23.7502 16.8003 23.7502 16.9992C23.7502 17.1981 23.6711 17.3889 23.5305 17.5295C23.3898 17.6702 23.1991 17.7492 23.0002 17.7492H16.0002C15.8012 17.7492 15.6105 17.6702 15.4698 17.5295C15.3292 17.3889 15.2502 17.1981 15.2502 16.9992V9.99918C15.2502 9.80026 15.3292 9.6095 15.4698 9.46885C15.6105 9.3282 15.8012 9.24918 16.0002 9.24918C16.1991 9.24918 16.3898 9.3282 16.5305 9.46885C16.6711 9.6095 16.7502 9.80026 16.7502 9.99918V16.2492H23.0002Z" fill="#FFCB90"/>
</svg>
