<svg width="19" height="19" viewBox="0 0 19 19" fill="none" xmlns="http://www.w3.org/2000/svg">
<path d="M9.5 4.75C8.91284 4.75 8.33886 4.92411 7.85065 5.25032C7.36244 5.57654 6.98193 6.04019 6.75723 6.58266C6.53253 7.12513 6.47374 7.72204 6.58829 8.29792C6.70284 8.87381 6.98559 9.40279 7.40078 9.81797C7.81596 10.2332 8.34494 10.5159 8.92083 10.6305C9.49671 10.745 10.0936 10.6862 10.6361 10.4615C11.1786 10.2368 11.6422 9.85631 11.9684 9.3681C12.2946 8.87989 12.4688 8.30591 12.4688 7.71875C12.4688 6.93139 12.156 6.17628 11.5992 5.61953C11.0425 5.06278 10.2874 4.75 9.5 4.75ZM9.5 9.5C9.1477 9.5 8.80332 9.39553 8.51039 9.19981C8.21747 9.00408 7.98916 8.72589 7.85434 8.4004C7.71952 8.07492 7.68425 7.71677 7.75298 7.37125C7.82171 7.02572 7.99135 6.70833 8.24047 6.45922C8.48958 6.2101 8.80697 6.04046 9.1525 5.97173C9.49802 5.903 9.85617 5.93827 10.1817 6.07309C10.5071 6.20791 10.7853 6.43622 10.9811 6.72914C11.1768 7.02207 11.2812 7.36645 11.2812 7.71875C11.2812 8.19117 11.0936 8.64424 10.7595 8.97828C10.4255 9.31233 9.97242 9.5 9.5 9.5ZM9.5 1.1875C7.76841 1.18946 6.1083 1.87821 4.88388 3.10263C3.65946 4.32705 2.97071 5.98716 2.96875 7.71875C2.96875 10.0492 4.04566 12.5192 6.08594 14.8623C7.0027 15.9211 8.03452 16.8745 9.1623 17.7049C9.26214 17.7748 9.38108 17.8123 9.50297 17.8123C9.62486 17.8123 9.7438 17.7748 9.84363 17.7049C10.9693 16.8741 11.9992 15.9207 12.9141 14.8623C14.9514 12.5192 16.0312 10.0492 16.0312 7.71875C16.0293 5.98716 15.3405 4.32705 14.1161 3.10263C12.8917 1.87821 11.2316 1.18946 9.5 1.1875ZM9.5 16.4766C8.27316 15.5117 4.15625 11.9678 4.15625 7.71875C4.15625 6.3015 4.71925 4.9423 5.7214 3.94015C6.72355 2.938 8.08275 2.375 9.5 2.375C10.9173 2.375 12.2765 2.938 13.2786 3.94015C14.2807 4.9423 14.8438 6.3015 14.8438 7.71875C14.8438 11.9663 10.7268 15.5117 9.5 16.4766Z" fill="#64352A"/>
</svg>
