<svg width="157" height="30" viewBox="0 0 157 30" fill="none" xmlns="http://www.w3.org/2000/svg">
<path d="M90.1999 3.99692C87.8327 3.51921 87.8986 1.4093 88.2273 0.414062L108.94 0.414063C112.096 0.414063 114.266 2.20549 114.857 3.20073C117.382 6.22626 116.699 10.4328 116.041 12.1579C114.621 15.3427 110.584 16.4043 108.742 16.5369L119 29.077H113.871L106.573 20.5179L100.26 12.755H107.953C111.307 12.755 112.688 10.9636 112.885 9.96836C113.871 6.18645 111.109 4.19597 109.729 3.99692L90.1999 3.99692Z" fill="#FF0000"/>
<path d="M88.1621 27.8479V16.5179C90.8285 15.8818 91.7567 17.1805 91.8873 17.9093V29.4381C89.3777 29.7561 88.3582 28.5105 88.1621 27.8479Z" fill="#FF0000"/>
<path d="M128.446 11.5523C130.188 16.3745 135.9 16.9103 138.538 16.5754V12.9588C136.428 13.0927 132.167 12.4765 132.008 8.94028C131.85 5.40401 134.185 4.25203 135.372 4.11809L154.171 4.11809C156.229 2.5107 155.82 0.769358 155.358 0.0996094L134.185 0.0996094C127.259 2.5107 127.127 9.1412 128.446 11.5523Z" fill="#FF0000"/>
<path d="M148.06 16.6164C146.165 16.2974 145.955 13.9579 146.086 12.8281L150.428 13.0275C151.533 13.3465 152.861 14.2238 153.387 14.6226C157.176 17.3341 156.676 22.3984 155.953 24.5916C154.216 28.1007 151.414 29.1109 150.23 29.1774H128.327C128.169 26.3063 129.314 25.5885 129.906 25.5885L149.836 25.3891C152.519 24.4321 152.927 21.8003 152.796 20.604C152.638 17.2544 149.572 16.5499 148.06 16.6164Z" fill="#FF0000"/>
<path d="M60.9249 0.101563C59.9769 0.260887 48.9437 19.1542 43.5454 28.5809L43.1504 29.1784H43.5454H47.6928L62.7024 4.483L73.5646 25.5936H62.3074C61.2014 25.9122 61.1884 28.1162 61.3199 29.1784H79.8844L64.6773 0.101563L60.9249 0.101563Z" fill="#FF0000"/>
<path d="M14.9957 19.8378L0.208984 2.1409L0.208984 0.351331L3.16632 0.351331L17.1644 15.2644C21.3704 10.5585 30.0189 0.987623 30.9653 0.351331C31.9116 -0.284963 33.0683 0.0862076 33.5283 0.351331V29.1833C31.1624 29.6605 30.0452 28.3217 29.7824 27.5926V6.51541C26.365 10.6911 19.3331 19.2015 18.5445 19.8378C17.7559 20.4741 15.85 20.1029 14.9957 19.8378Z" fill="#FF0000"/>
<path d="M0 27.8604L0 16.6711C1.73446 16.0317 3.48205 16.9375 4.13905 17.4703V29.0592C1.93155 29.5388 0.459895 28.4598 0 27.8604Z" fill="#FF0000"/>
</svg>
