<svg width="82" height="50" viewBox="0 0 82 50" fill="none" xmlns="http://www.w3.org/2000/svg">
<g clip-path="url(#clip0_53_41146)">
<path d="M81.339 25C81.339 38.8117 70.171 50 56.3976 50C42.6241 50 31.4561 38.8117 31.4561 25C31.4561 11.1883 42.6068 0 56.3802 0C70.1536 0 81.339 11.1883 81.339 25Z" fill="#F79F1A"/>
<path d="M50.5441 25C50.5441 38.8117 39.376 50 25.6026 50C11.8292 50 0.661133 38.8117 0.661133 25C0.661133 11.1883 11.8292 0 25.6026 0C39.376 0 50.5441 11.1883 50.5441 25Z" fill="#EA001B"/>
<path d="M40.9913 5.31641C35.1728 9.88555 31.4385 17.0086 31.4385 25.0002C31.4385 32.9919 35.1728 40.1149 40.9913 44.684C46.8098 40.1149 50.5441 32.9919 50.5441 25.0002C50.5441 17.0086 46.8098 9.90292 40.9913 5.31641Z" fill="#FF5F01"/>
</g>
<defs>
<clipPath id="clip0_53_41146">
<rect width="82" height="50" fill="white"/>
</clipPath>
</defs>
</svg>
