<svg width="26" height="26" viewBox="0 0 26 26" fill="none" xmlns="http://www.w3.org/2000/svg">
<path d="M23.1808 22.3185L17.9625 17.1003C19.4506 15.389 20.2161 13.1668 20.0976 10.9021C19.9792 8.63739 18.9861 6.50714 17.3277 4.96039C15.6692 3.41363 13.475 2.57121 11.2076 2.6107C8.94016 2.65019 6.77662 3.56851 5.17305 5.17208C3.56949 6.77564 2.65117 8.93918 2.61168 11.2066C2.57219 13.4741 3.41461 15.6683 4.96136 17.3267C6.50812 18.9851 8.63836 19.9782 10.9031 20.0967C13.1677 20.2151 15.39 19.4496 17.1012 17.9615L22.3195 23.1798C22.435 23.2874 22.5878 23.346 22.7457 23.3433C22.9036 23.3405 23.0542 23.2765 23.1658 23.1649C23.2775 23.0532 23.3414 22.9026 23.3442 22.7447C23.347 22.5869 23.2884 22.4341 23.1808 22.3185ZM3.85952 11.3742C3.85952 9.88772 4.30031 8.43465 5.12613 7.19871C5.95196 5.96278 7.12574 4.99948 8.49904 4.43064C9.87234 3.8618 11.3835 3.71296 12.8414 4.00296C14.2993 4.29295 15.6384 5.00874 16.6895 6.05982C17.7406 7.1109 18.4564 8.45006 18.7464 9.90795C19.0364 11.3658 18.8875 12.877 18.3187 14.2503C17.7498 15.6236 16.7865 16.7974 15.5506 17.6232C14.3147 18.449 12.8616 18.8898 11.3751 18.8898C9.38262 18.8874 7.4724 18.0948 6.06347 16.6858C4.65454 15.2769 3.86194 13.3667 3.85952 11.3742Z" fill="#FFCB90"/>
</svg>
