<svg width="156" height="50" viewBox="0 0 156 50" fill="none" xmlns="http://www.w3.org/2000/svg">
<g clip-path="url(#clip0_53_41184)">
<path d="M101.608 0.0605469C90.5318 0.0605469 80.6333 5.726 80.6333 16.1934C80.6333 28.1974 98.1888 29.0264 98.1888 35.0569C98.1888 37.5961 95.2399 39.8691 90.2034 39.8691C83.0557 39.8691 77.7135 36.6931 77.7135 36.6931L75.4276 47.2558C75.4276 47.2558 81.5817 49.9386 89.7525 49.9386C101.863 49.9386 111.392 43.9949 111.392 33.3488C111.392 20.6643 93.7635 19.8597 93.7635 14.2626C93.7635 12.2732 96.1841 10.0938 101.206 10.0938C106.872 10.0938 111.496 12.4037 111.496 12.4037L113.733 2.202C113.733 2.202 108.702 0.0605469 101.608 0.0605469ZM0.268276 0.830559L0 2.37043C0 2.37043 4.66001 3.21194 8.85702 4.89081C14.261 6.81576 14.646 7.93649 15.5561 11.4172L25.4736 49.1446H38.7684L59.2499 0.830559H45.9856L32.8251 33.6794L27.4549 5.8351C26.9624 2.64842 24.4676 0.830559 21.414 0.830559H0.268276ZM64.5835 0.830559L54.1782 49.1444H66.8267L77.1955 0.830405H64.5835V0.830559ZM135.128 0.830559C132.078 0.830559 130.463 2.44193 129.277 5.25771L110.746 49.1444H124.01L126.576 41.8298H142.736L144.296 49.1444H156L145.79 0.830559H135.128ZM136.854 13.8835L140.785 32.0132H130.252L136.854 13.8835Z" fill="#1434CB"/>
</g>
<defs>
<clipPath id="clip0_53_41184">
<rect width="156" height="50" fill="white"/>
</clipPath>
</defs>
</svg>
